  0
SECTION
  2
HEADER
  9
$ACADVER
  1
AC1014
  9
$HANDSEED
  5
FFFF
  9
$MEASUREMENT
 70
     1
  0
ENDSEC
  0
SECTION
  2
TABLES
  0
TABLE
  2
VPORT
  5
8
330
0
100
AcDbSymbolTable
 70
     4
  0
VPORT
  5
2E
330
8
100
AcDbSymbolTableRecord
100
AcDbViewportTableRecord
  2
*ACTIVE
 70
     0
 10
0.0
 20
0.0
 11
1.0
 21
1.0
 12
210.0
 22
148.5
 13
0.0
 23
0.0
 14
10.0
 24
10.0
 15
10.0
 25
10.0
 16
0.0
 26
0.0
 36
1.0
 17
0.0
 27
0.0
 37
0.0
 40
341.0
 41
1.24
 42
50.0
 43
0.0
 44
0.0
 50
0.0
 51
0.0
 71
     0
 72
   100
 73
     1
 74
     3
 75
     0
 76
     0
 77
     0
 78
     0
  0
ENDTAB
  0
TABLE
  2
LTYPE
  5
5
330
0
100
AcDbSymbolTable
 70
     1
  0
LTYPE
  5
14
330
5
100
AcDbSymbolTableRecord
100
AcDbLinetypeTableRecord
  2
BYBLOCK
 70
     0
  3

 72
    65
 73
     0
 40
0.0
  0
LTYPE
  5
15
330
5
100
AcDbSymbolTableRecord
100
AcDbLinetypeTableRecord
  2
BYLAYER
 70
     0
  3

 72
    65
 73
     0
 40
0.0
  0
LTYPE
  5
16
330
5
100
AcDbSymbolTableRecord
100
AcDbLinetypeTableRecord
  2
CONTINUOUS
 70
     0
  3
Solid line
 72
    65
 73
     0
 40
0.0
  0
ENDTAB
  0
TABLE
  2
LAYER
  5
2
100
AcDbSymbolTable
 70
2
  0
LAYER
  5
50
100
AcDbSymbolTableRecord
100
AcDbLayerTableRecord
  2
0
 70
0
  6
CONTINUOUS
  0
LAYER
  5
51
100
AcDbSymbolTableRecord
100
AcDbLayerTableRecord
  2
Image
 70
0
  6
CONTINUOUS
  0
ENDTAB
  0
TABLE
  2
STYLE
  5
3
330
0
100
AcDbSymbolTable
 70
     1
  0
STYLE
  5
11
330
3
100
AcDbSymbolTableRecord
100
AcDbTextStyleTableRecord
  2
STANDARD
 70
     0
 40
0.0
 41
1.0
 50
0.0
 71
     0
 42
2.5
  3
txt
  4

  0
ENDTAB
  0
TABLE
  2
VIEW
  5
6
330
0
100
AcDbSymbolTable
 70
     0
  0
ENDTAB
  0
TABLE
  2
UCS
  5
7
330
0
100
AcDbSymbolTable
 70
     0
  0
ENDTAB
  0
TABLE
  2
APPID
  5
9
330
0
100
AcDbSymbolTable
 70
     2
  0
APPID
  5
12
330
9
100
AcDbSymbolTableRecord
100
AcDbRegAppTableRecord
  2
ACAD
 70
     0
  0
ENDTAB
  0
TABLE
  2
DIMSTYLE
  5
A
330
0
100
AcDbSymbolTable
 70
     1
  0
DIMSTYLE
105
27
330
A
100
AcDbSymbolTableRecord
100
AcDbDimStyleTableRecord
  2
ISO-25
 70
     0
  3

  4

  5

  6

  7

 40
1.0
 41
2.5
 42
0.625
 43
3.75
 44
1.25
 45
0.0
 46
0.0
 47
0.0
 48
0.0
140
2.5
141
2.5
142
0.0
143
0.03937007874016
144
1.0
145
0.0
146
1.0
147
0.625
 71
     0
 72
     0
 73
     0
 74
     0
 75
     0
 76
     0
 77
     1
 78
     8
170
     0
171
     3
172
     1
173
     0
174
     0
175
     0
176
     0
177
     0
178
     0
270
     2
271
     2
272
     2
273
     2
274
     3
340
11
275
     0
280
     0
281
     0
282
     0
283
     0
284
     8
285
     0
286
     0
287
     3
288
     0
  0
ENDTAB
  0
TABLE
  2
BLOCK_RECORD
  5
1
330
0
100
AcDbSymbolTable
 70
     1
  0
BLOCK_RECORD
  5
1F
330
1
100
AcDbSymbolTableRecord
100
AcDbBlockTableRecord
  2
*MODEL_SPACE
  0
BLOCK_RECORD
  5
1B
330
1
100
AcDbSymbolTableRecord
100
AcDbBlockTableRecord
  2
*PAPER_SPACE
  0
ENDTAB
  0
ENDSEC
  0
SECTION
  2
BLOCKS
  0
BLOCK
  5
20
330
1F
100
AcDbEntity
  8
0
100
AcDbBlockBegin
  2
*MODEL_SPACE
 70
     0
 10
0.0
 20
0.0
 30
0.0
  3
*MODEL_SPACE
  1

  0
ENDBLK
  5
21
330
1F
100
AcDbEntity
  8
0
100
AcDbBlockEnd
  0
BLOCK
  5
1C
330
1B
100
AcDbEntity
 67
     1
  8
0
100
AcDbBlockBegin
  2
*PAPER_SPACE
  1

  0
ENDBLK
  5
1D
330
1B
100
AcDbEntity
 67
     1
  8
0
100
AcDbBlockEnd
  0
ENDSEC
  0
SECTION
  2
ENTITIES
  0
SPLINE
  5
100
100
AcDbEntity
  8
Image
 62
7
100
AcDbSpline
 70
8
 71
3
 72
8
 73
4
 74
0
 40
0
 40
0
 40
0
 40
0
 40
1
 40
1
 40
1
 40
1
 10
1.662937
 20
8.058345
 30
0.0
 10
1.666244
 20
11.352825
 30
0.0
 10
2.057673
 20
20.058630
 30
0.0
 10
2.507321
 20
26.838345
 30
0.0
  0
SPLINE
  5
101
100
AcDbEntity
  8
Image
 62
7
100
AcDbSpline
 70
8
 71
3
 72
8
 73
4
 74
0
 40
0
 40
0
 40
0
 40
0
 40
1
 40
1
 40
1
 40
1
 10
2.507321
 20
26.838345
 30
0.0
 10
8.525289
 20
117.576202
 30
0.0
 10
42.599630
 20
202.808475
 30
0.0
 10
98.260462
 20
266.351685
 30
0.0
  0
SPLINE
  5
102
100
AcDbEntity
  8
Image
 62
7
100
AcDbSpline
 70
8
 71
3
 72
8
 73
4
 74
0
 40
0
 40
0
 40
0
 40
0
 40
1
 40
1
 40
1
 40
1
 10
98.260462
 20
266.351685
 30
0.0
 10
108.644925
 20
278.206740
 30
0.0
 10
121.067295
 20
290.531933
 30
0.0
 10
132.860572
 20
300.681143
 30
0.0
  0
SPLINE
  5
103
100
AcDbEntity
  8
Image
 62
7
100
AcDbSpline
 70
8
 71
3
 72
8
 73
4
 74
0
 40
0
 40
0
 40
0
 40
0
 40
1
 40
1
 40
1
 40
1
 10
132.860572
 20
300.681143
 30
0.0
 10
159.159818
 20
323.314072
 30
0.0
 10
189.603592
 20
341.782319
 30
0.0
 10
220.780462
 20
354.016402
 30
0.0
  0
SPLINE
  5
104
100
AcDbEntity
  8
Image
 62
7
100
AcDbSpline
 70
8
 71
3
 72
8
 73
4
 74
0
 40
0
 40
0
 40
0
 40
0
 40
1
 40
1
 40
1
 40
1
 10
220.780462
 20
354.016402
 30
0.0
 10
249.492720
 20
365.283352
 30
0.0
 10
278.946045
 20
371.673839
 30
0.0
 10
309.580463
 20
373.283339
 30
0.0
  0
SPLINE
  5
105
100
AcDbEntity
  8
Image
 62
7
100
AcDbSpline
 70
8
 71
3
 72
8
 73
4
 74
0
 40
0
 40
0
 40
0
 40
0
 40
1
 40
1
 40
1
 40
1
 10
309.580463
 20
373.283339
 30
0.0
 10
314.749320
 20
373.554899
 30
0.0
 10
336.413160
 20
373.737367
 30
0.0
 10
335.456085
 20
373.501274
 30
0.0
  0
SPLINE
  5
106
100
AcDbEntity
  8
Image
 62
7
100
AcDbSpline
 70
8
 71
3
 72
8
 73
4
 74
0
 40
0
 40
0
 40
0
 40
0
 40
1
 40
1
 40
1
 40
1
 10
335.456085
 20
373.501274
 30
0.0
 10
335.150498
 20
373.425892
 30
0.0
 10
336.707858
 20
373.283519
 30
0.0
 10
338.916885
 20
373.184894
 30
0.0
  0
SPLINE
  5
107
100
AcDbEntity
  8
Image
 62
7
100
AcDbSpline
 70
8
 71
3
 72
8
 73
4
 74
0
 40
0
 40
0
 40
0
 40
0
 40
1
 40
1
 40
1
 40
1
 10
338.916885
 20
373.184894
 30
0.0
 10
341.125898
 20
373.086269
 30
0.0
 10
343.042897
 20
373.073324
 30
0.0
 10
343.176885
 20
373.156094
 30
0.0
  0
SPLINE
  5
108
100
AcDbEntity
  8
Image
 62
7
100
AcDbSpline
 70
8
 71
3
 72
8
 73
4
 74
0
 40
0
 40
0
 40
0
 40
0
 40
1
 40
1
 40
1
 40
1
 10
343.176885
 20
373.156094
 30
0.0
 10
343.310857
 20
373.238894
 30
0.0
 10
343.420462
 20
373.207694
 30
0.0
 10
343.420462
 20
373.086794
 30
0.0
  0
SPLINE
  5
109
100
AcDbEntity
  8
Image
 62
7
100
AcDbSpline
 70
8
 71
3
 72
8
 73
4
 74
0
 40
0
 40
0
 40
0
 40
0
 40
1
 40
1
 40
1
 40
1
 10
343.420462
 20
373.086794
 30
0.0
 10
343.420462
 20
372.965872
 30
0.0
 10
344.527463
 20
372.793934
 30
0.0
 10
345.880463
 20
372.704714
 30
0.0
  0
SPLINE
  5
10a
100
AcDbEntity
  8
Image
 62
7
100
AcDbSpline
 70
8
 71
3
 72
8
 73
4
 74
0
 40
0
 40
0
 40
0
 40
0
 40
1
 40
1
 40
1
 40
1
 10
345.880463
 20
372.704714
 30
0.0
 10
349.569022
 20
372.461467
 30
0.0
 10
358.521547
 20
371.432437
 30
0.0
 10
363.940462
 20
370.628857
 30
0.0
  0
SPLINE
  5
10b
100
AcDbEntity
  8
Image
 62
7
100
AcDbSpline
 70
8
 71
3
 72
8
 73
4
 74
0
 40
0
 40
0
 40
0
 40
0
 40
1
 40
1
 40
1
 40
1
 10
363.940462
 20
370.628857
 30
0.0
 10
414.771382
 20
363.090997
 30
0.0
 10
463.366965
 20
341.444474
 30
0.0
 10
505.660462
 20
307.500780
 30
0.0
  0
SPLINE
  5
10c
100
AcDbEntity
  8
Image
 62
7
100
AcDbSpline
 70
8
 71
3
 72
8
 73
4
 74
0
 40
0
 40
0
 40
0
 40
0
 40
1
 40
1
 40
1
 40
1
 10
505.660462
 20
307.500780
 30
0.0
 10
520.610422
 20
295.502333
 30
0.0
 10
535.459965
 20
281.238900
 30
0.0
 10
548.500462
 20
266.351670
 30
0.0
  0
SPLINE
  5
10d
100
AcDbEntity
  8
Image
 62
7
100
AcDbSpline
 70
8
 71
3
 72
8
 73
4
 74
0
 40
0
 40
0
 40
0
 40
0
 40
1
 40
1
 40
1
 40
1
 10
548.500462
 20
266.351670
 30
0.0
 10
604.161308
 20
202.808460
 30
0.0
 10
638.235645
 20
117.576180
 30
0.0
 10
644.253600
 20
26.838330
 30
0.0
  0
SPLINE
  5
10e
100
AcDbEntity
  8
Image
 62
7
100
AcDbSpline
 70
8
 71
3
 72
8
 73
4
 74
0
 40
0
 40
0
 40
0
 40
0
 40
1
 40
1
 40
1
 40
1
 10
644.253600
 20
26.838330
 30
0.0
 10
644.703262
 20
20.058615
 30
0.0
 10
645.094680
 20
11.352810
 30
0.0
 10
645.097987
 20
8.058330
 30
0.0
  0
SPLINE
  5
10f
100
AcDbEntity
  8
Image
 62
7
100
AcDbSpline
 70
8
 71
3
 72
8
 73
4
 74
0
 40
0
 40
0
 40
0
 40
0
 40
1
 40
1
 40
1
 40
1
 10
634.690725
 20
35.178345
 30
0.0
 10
634.416263
 20
39.755767
 30
0.0
 10
633.832485
 20
46.225830
 30
0.0
 10
633.082898
 20
52.998345
 30
0.0
  0
SPLINE
  5
110
100
AcDbEntity
  8
Image
 62
7
100
AcDbSpline
 70
8
 71
3
 72
8
 73
4
 74
0
 40
0
 40
0
 40
0
 40
0
 40
1
 40
1
 40
1
 40
1
 10
633.082898
 20
52.998345
 30
0.0
 10
623.538240
 20
139.232385
 30
0.0
 10
587.045138
 20
218.497335
 30
0.0
 10
530.502480
 20
275.808465
 30
0.0
  0
SPLINE
  5
111
100
AcDbEntity
  8
Image
 62
7
100
AcDbSpline
 70
8
 71
3
 72
8
 73
4
 74
0
 40
0
 40
0
 40
0
 40
0
 40
1
 40
1
 40
1
 40
1
 10
530.502480
 20
275.808465
 30
0.0
 10
514.235063
 20
292.296990
 30
0.0
 10
499.235925
 20
304.730610
 30
0.0
 10
480.700462
 20
317.092139
 30
0.0
  0
SPLINE
  5
112
100
AcDbEntity
  8
Image
 62
7
100
AcDbSpline
 70
8
 71
3
 72
8
 73
4
 74
0
 40
0
 40
0
 40
0
 40
0
 40
1
 40
1
 40
1
 40
1
 10
480.700462
 20
317.092139
 30
0.0
 10
442.177658
 20
342.783494
 30
0.0
 10
399.348742
 20
358.634384
 30
0.0
 10
355.180462
 20
363.546824
 30
0.0
  0
SPLINE
  5
113
100
AcDbEntity
  8
Image
 62
7
100
AcDbSpline
 70
8
 71
3
 72
8
 73
4
 74
0
 40
0
 40
0
 40
0
 40
0
 40
1
 40
1
 40
1
 40
1
 10
355.180462
 20
363.546824
 30
0.0
 10
343.572765
 20
364.837852
 30
0.0
 10
340.464525
 20
364.987072
 30
0.0
 10
325.180462
 20
364.987072
 30
0.0
  0
SPLINE
  5
114
100
AcDbEntity
  8
Image
 62
7
100
AcDbSpline
 70
8
 71
3
 72
8
 73
4
 74
0
 40
0
 40
0
 40
0
 40
0
 40
1
 40
1
 40
1
 40
1
 10
325.180462
 20
364.987072
 30
0.0
 10
309.896400
 20
364.987072
 30
0.0
 10
306.788160
 20
364.837852
 30
0.0
 10
295.180462
 20
363.546824
 30
0.0
  0
SPLINE
  5
115
100
AcDbEntity
  8
Image
 62
7
100
AcDbSpline
 70
8
 71
3
 72
8
 73
4
 74
0
 40
0
 40
0
 40
0
 40
0
 40
1
 40
1
 40
1
 40
1
 10
295.180462
 20
363.546824
 30
0.0
 10
243.845160
 20
357.837254
 30
0.0
 10
194.229795
 20
337.265347
 30
0.0
 10
151.242525
 20
303.866160
 30
0.0
  0
SPLINE
  5
116
100
AcDbEntity
  8
Image
 62
7
100
AcDbSpline
 70
8
 71
3
 72
8
 73
4
 74
0
 40
0
 40
0
 40
0
 40
0
 40
1
 40
1
 40
1
 40
1
 10
151.242525
 20
303.866160
 30
0.0
 10
131.817697
 20
288.773933
 30
0.0
 10
112.944667
 20
270.071737
 30
0.0
 10
96.918862
 20
250.034205
 30
0.0
  0
SPLINE
  5
117
100
AcDbEntity
  8
Image
 62
7
100
AcDbSpline
 70
8
 71
3
 72
8
 73
4
 74
0
 40
0
 40
0
 40
0
 40
0
 40
1
 40
1
 40
1
 40
1
 10
96.918862
 20
250.034205
 30
0.0
 10
53.939289
 20
196.295588
 30
0.0
 10
26.204680
 20
128.500425
 30
0.0
 10
17.638099
 20
56.238345
 30
0.0
  0
SPLINE
  5
118
100
AcDbEntity
  8
Image
 62
7
100
AcDbSpline
 70
8
 71
3
 72
8
 73
4
 74
0
 40
0
 40
0
 40
0
 40
0
 40
1
 40
1
 40
1
 40
1
 10
17.638099
 20
56.238345
 30
0.0
 10
17.072635
 20
51.468465
 30
0.0
 10
16.061521
 20
41.471527
 30
0.0
 10
16.060276
 20
40.638345
 30
0.0
  0
SPLINE
  5
119
100
AcDbEntity
  8
Image
 62
7
100
AcDbSpline
 70
8
 71
3
 72
8
 73
4
 74
0
 40
0
 40
0
 40
0
 40
0
 40
1
 40
1
 40
1
 40
1
 10
16.060276
 20
40.638345
 30
0.0
 10
16.059796
 20
40.324980
 30
0.0
 10
16.808506
 20
40.293900
 30
0.0
 10
21.840062
 20
40.398345
 30
0.0
  0
LWPOLYLINE
  5
11a
100
AcDbEntity
  8
Image
 62
7
100
AcDbPolyline
 90
6
 70
0
 10
645.097987
 20
8.058330
 30
0.0
 10
645.100238
 20
5.598330
 30
0.0
 10
323.380387
 20
5.598330
 30
0.0
 10
1.660396
 20
5.598330
 30
0.0
 10
1.662863
 20
8.058330
 30
0.0
 10
1.662937
 20
8.058345
 30
0.0
  0
SPLINE
  5
11b
100
AcDbEntity
  8
Image
 62
7
100
AcDbSpline
 70
8
 71
3
 72
8
 73
4
 74
0
 40
0
 40
0
 40
0
 40
0
 40
1
 40
1
 40
1
 40
1
 10
103.981020
 20
161.277967
 30
0.0
 10
104.068718
 20
170.605755
 30
0.0
 10
104.140463
 20
181.594972
 30
0.0
 10
104.140463
 20
185.698455
 30
0.0
  0
LWPOLYLINE
  5
11c
100
AcDbEntity
  8
Image
 62
7
100
AcDbPolyline
 90
21
 70
0
 10
21.840062
 20
40.398345
 30
0.0
 10
27.620388
 20
40.518345
 30
0.0
 10
28.320427
 20
41.302140
 30
0.0
 10
29.020468
 20
42.085928
 30
0.0
 10
29.020468
 20
53.962140
 30
0.0
 10
29.020468
 20
65.838345
 30
0.0
 10
44.740468
 20
65.838345
 30
0.0
 10
60.460468
 20
65.838345
 30
0.0
 10
60.460468
 20
104.838345
 30
0.0
 10
60.460468
 20
143.838345
 30
0.0
 10
66.820469
 20
143.838345
 30
0.0
 10
73.180469
 20
143.838345
 30
0.0
 10
73.180469
 20
165.977452
 30
0.0
 10
73.180469
 20
188.116560
 30
0.0
 10
85.300463
 20
175.998345
 30
0.0
 10
97.420463
 20
163.880130
 30
0.0
 10
97.420463
 20
154.099237
 30
0.0
 10
97.420463
 20
144.318345
 30
0.0
 10
100.621020
 20
144.318345
 30
0.0
 10
103.821585
 20
144.318345
 30
0.0
 10
103.981020
 20
161.277967
 30
0.0
  0
SPLINE
  5
11d
100
AcDbEntity
  8
Image
 62
7
100
AcDbSpline
 70
8
 71
3
 72
8
 73
4
 74
0
 40
0
 40
0
 40
0
 40
0
 40
1
 40
1
 40
1
 40
1
 10
107.200463
 20
194.949157
 30
0.0
 10
108.883463
 20
195.933562
 30
0.0
 10
110.962463
 20
197.188665
 30
0.0
 10
111.820463
 20
197.738272
 30
0.0
  0
SPLINE
  5
11e
100
AcDbEntity
  8
Image
 62
7
100
AcDbSpline
 70
8
 71
3
 72
8
 73
4
 74
0
 40
0
 40
0
 40
0
 40
0
 40
1
 40
1
 40
1
 40
1
 10
111.820463
 20
197.738272
 30
0.0
 10
112.678463
 20
198.287872
 30
0.0
 10
114.190463
 20
199.143465
 30
0.0
 10
115.180463
 20
199.639582
 30
0.0
  0
SPLINE
  5
11f
100
AcDbEntity
  8
Image
 62
7
100
AcDbSpline
 70
8
 71
3
 72
8
 73
4
 74
0
 40
0
 40
0
 40
0
 40
0
 40
1
 40
1
 40
1
 40
1
 10
115.180463
 20
199.639582
 30
0.0
 10
116.170463
 20
200.135700
 30
0.0
 10
117.466463
 20
200.876265
 30
0.0
 10
118.060463
 20
201.285285
 30
0.0
  0
SPLINE
  5
120
100
AcDbEntity
  8
Image
 62
7
100
AcDbSpline
 70
8
 71
3
 72
8
 73
4
 74
0
 40
0
 40
0
 40
0
 40
0
 40
1
 40
1
 40
1
 40
1
 10
118.060463
 20
201.285285
 30
0.0
 10
118.654463
 20
201.694305
 30
0.0
 10
120.190238
 20
202.625070
 30
0.0
 10
121.473293
 20
203.353650
 30
0.0
  0
SPLINE
  5
121
100
AcDbEntity
  8
Image
 62
7
100
AcDbSpline
 70
8
 71
3
 72
8
 73
4
 74
0
 40
0
 40
0
 40
0
 40
0
 40
1
 40
1
 40
1
 40
1
 10
121.473293
 20
203.353650
 30
0.0
 10
122.756340
 20
204.082230
 30
0.0
 10
126.318045
 20
206.136345
 30
0.0
 10
129.388185
 20
207.918345
 30
0.0
  0
SPLINE
  5
122
100
AcDbEntity
  8
Image
 62
7
100
AcDbSpline
 70
8
 71
3
 72
8
 73
4
 74
0
 40
0
 40
0
 40
0
 40
0
 40
1
 40
1
 40
1
 40
1
 10
129.388185
 20
207.918345
 30
0.0
 10
132.458325
 20
209.700345
 30
0.0
 10
135.282165
 20
211.293435
 30
0.0
 10
135.663375
 20
211.458540
 30
0.0
  0
SPLINE
  5
123
100
AcDbEntity
  8
Image
 62
7
100
AcDbSpline
 70
8
 71
3
 72
8
 73
4
 74
0
 40
0
 40
0
 40
0
 40
0
 40
1
 40
1
 40
1
 40
1
 10
135.663375
 20
211.458540
 30
0.0
 10
136.044593
 20
211.623645
 30
0.0
 10
137.087408
 20
212.244645
 30
0.0
 10
137.980755
 20
212.838540
 30
0.0
  0
SPLINE
  5
124
100
AcDbEntity
  8
Image
 62
7
100
AcDbSpline
 70
8
 71
3
 72
8
 73
4
 74
0
 40
0
 40
0
 40
0
 40
0
 40
1
 40
1
 40
1
 40
1
 10
137.980755
 20
212.838540
 30
0.0
 10
138.874095
 20
213.432435
 30
0.0
 10
139.710420
 20
213.918345
 30
0.0
 10
139.839248
 20
213.918345
 30
0.0
  0
SPLINE
  5
125
100
AcDbEntity
  8
Image
 62
7
100
AcDbSpline
 70
8
 71
3
 72
8
 73
4
 74
0
 40
0
 40
0
 40
0
 40
0
 40
1
 40
1
 40
1
 40
1
 10
139.839248
 20
213.918345
 30
0.0
 10
139.968075
 20
213.918345
 30
0.0
 10
140.480775
 20
214.194742
 30
0.0
 10
140.978580
 20
214.532565
 30
0.0
  0
SPLINE
  5
126
100
AcDbEntity
  8
Image
 62
7
100
AcDbSpline
 70
8
 71
3
 72
8
 73
4
 74
0
 40
0
 40
0
 40
0
 40
0
 40
1
 40
1
 40
1
 40
1
 10
140.978580
 20
214.532565
 30
0.0
 10
141.476393
 20
214.870387
 30
0.0
 10
142.436460
 20
215.427697
 30
0.0
 10
143.112075
 20
215.771040
 30
0.0
  0
SPLINE
  5
127
100
AcDbEntity
  8
Image
 62
7
100
AcDbSpline
 70
8
 71
3
 72
8
 73
4
 74
0
 40
0
 40
0
 40
0
 40
0
 40
1
 40
1
 40
1
 40
1
 10
143.112075
 20
215.771040
 30
0.0
 10
143.787690
 20
216.114382
 30
0.0
 10
144.948593
 20
216.755985
 30
0.0
 10
145.691858
 20
217.196820
 30
0.0
  0
SPLINE
  5
128
100
AcDbEntity
  8
Image
 62
7
100
AcDbSpline
 70
8
 71
3
 72
8
 73
4
 74
0
 40
0
 40
0
 40
0
 40
0
 40
1
 40
1
 40
1
 40
1
 10
145.691858
 20
217.196820
 30
0.0
 10
146.435123
 20
217.637655
 30
0.0
 10
147.110123
 20
217.998345
 30
0.0
 10
147.191858
 20
217.998345
 30
0.0
  0
SPLINE
  5
129
100
AcDbEntity
  8
Image
 62
7
100
AcDbSpline
 70
8
 71
3
 72
8
 73
4
 74
0
 40
0
 40
0
 40
0
 40
0
 40
1
 40
1
 40
1
 40
1
 10
147.191858
 20
217.998345
 30
0.0
 10
147.273593
 20
217.998345
 30
0.0
 10
147.340463
 20
183.654345
 30
0.0
 10
147.340463
 20
141.678345
 30
0.0
  0
LWPOLYLINE
  5
12a
100
AcDbEntity
  8
Image
 62
7
100
AcDbPolyline
 90
3
 70
0
 10
104.140463
 20
185.698455
 30
0.0
 10
104.140463
 20
193.159327
 30
0.0
 10
107.200463
 20
194.949157
 30
0.0
  0
SPLINE
  5
12b
100
AcDbEntity
  8
Image
 62
7
100
AcDbSpline
 70
8
 71
3
 72
8
 73
4
 74
0
 40
0
 40
0
 40
0
 40
0
 40
1
 40
1
 40
1
 40
1
 10
204.520463
 20
260.039392
 30
0.0
 10
204.949463
 20
259.776435
 30
0.0
 10
205.840463
 20
259.279702
 30
0.0
 10
206.500463
 20
258.935542
 30
0.0
  0
SPLINE
  5
12c
100
AcDbEntity
  8
Image
 62
7
100
AcDbSpline
 70
8
 71
3
 72
8
 73
4
 74
0
 40
0
 40
0
 40
0
 40
0
 40
1
 40
1
 40
1
 40
1
 10
206.500463
 20
258.935542
 30
0.0
 10
207.160462
 20
258.591383
 30
0.0
 10
214.689975
 20
254.234722
 30
0.0
 10
223.232723
 20
249.254070
 30
0.0
  0
LWPOLYLINE
  5
12d
100
AcDbEntity
  8
Image
 62
7
100
AcDbPolyline
 90
23
 70
0
 10
147.340463
 20
141.678345
 30
0.0
 10
147.340463
 20
65.358345
 30
0.0
 10
151.780463
 20
65.358345
 30
0.0
 10
156.220463
 20
65.358345
 30
0.0
 10
156.220463
 20
88.398345
 30
0.0
 10
156.220463
 20
111.438345
 30
0.0
 10
163.060463
 20
111.438345
 30
0.0
 10
169.900463
 20
111.438345
 30
0.0
 10
169.900463
 20
147.438345
 30
0.0
 10
169.900463
 20
183.438345
 30
0.0
 10
174.460463
 20
183.438345
 30
0.0
 10
179.020463
 20
183.438345
 30
0.0
 10
179.020463
 20
196.878345
 30
0.0
 10
179.020463
 20
210.318345
 30
0.0
 10
189.820463
 20
210.318345
 30
0.0
 10
200.620463
 20
210.318345
 30
0.0
 10
200.620463
 20
196.998345
 30
0.0
 10
200.620463
 20
183.678345
 30
0.0
 10
202.180463
 20
183.678345
 30
0.0
 10
203.740463
 20
183.678345
 30
0.0
 10
203.740463
 20
222.097920
 30
0.0
 10
203.740463
 20
260.517495
 30
0.0
 10
204.520463
 20
260.039392
 30
0.0
  0
SPLINE
  5
12e
100
AcDbEntity
  8
Image
 62
7
100
AcDbSpline
 70
8
 71
3
 72
8
 73
4
 74
0
 40
0
 40
0
 40
0
 40
0
 40
1
 40
1
 40
1
 40
1
 10
361.454513
 20
304.043085
 30
0.0
 10
363.585833
 20
306.416475
 30
0.0
 10
365.817428
 20
308.898345
 30
0.0
 10
366.413633
 20
309.558345
 30
0.0
  0
SPLINE
  5
12f
100
AcDbEntity
  8
Image
 62
7
100
AcDbSpline
 70
8
 71
3
 72
8
 73
4
 74
0
 40
0
 40
0
 40
0
 40
0
 40
1
 40
1
 40
1
 40
1
 10
366.413633
 20
309.558345
 30
0.0
 10
367.009845
 20
310.218345
 30
0.0
 10
369.173850
 20
312.621345
 30
0.0
 10
371.222565
 20
314.898344
 30
0.0
  0
SPLINE
  5
130
100
AcDbEntity
  8
Image
 62
7
100
AcDbSpline
 70
8
 71
3
 72
8
 73
4
 74
0
 40
0
 40
0
 40
0
 40
0
 40
1
 40
1
 40
1
 40
1
 10
371.222565
 20
314.898344
 30
0.0
 10
373.271273
 20
317.175344
 30
0.0
 10
375.089655
 20
319.038344
 30
0.0
 10
375.263445
 20
319.038344
 30
0.0
  0
SPLINE
  5
131
100
AcDbEntity
  8
Image
 62
7
100
AcDbSpline
 70
8
 71
3
 72
8
 73
4
 74
0
 40
0
 40
0
 40
0
 40
0
 40
1
 40
1
 40
1
 40
1
 10
375.263445
 20
319.038344
 30
0.0
 10
375.523335
 20
319.038344
 30
0.0
 10
375.579375
 20
312.377400
 30
0.0
 10
375.579375
 20
281.478345
 30
0.0
  0
LWPOLYLINE
  5
132
100
AcDbEntity
  8
Image
 62
7
100
AcDbPolyline
 90
37
 70
0
 10
223.232723
 20
249.254070
 30
0.0
 10
238.764983
 20
240.198345
 30
0.0
 10
238.772633
 20
175.218345
 30
0.0
 10
238.780282
 20
110.238345
 30
0.0
 10
243.819660
 20
110.238345
 30
0.0
 10
248.859038
 20
110.238345
 30
0.0
 10
248.919638
 20
155.646720
 30
0.0
 10
248.980238
 20
201.055095
 30
0.0
 10
258.160238
 20
191.932380
 30
0.0
 10
267.340238
 20
182.809665
 30
0.0
 10
267.340238
 20
153.724005
 30
0.0
 10
267.340238
 20
124.638345
 30
0.0
 10
272.620238
 20
124.638345
 30
0.0
 10
277.900238
 20
124.638345
 30
0.0
 10
277.900238
 20
139.518345
 30
0.0
 10
277.900238
 20
154.398345
 30
0.0
 10
285.580238
 20
154.398345
 30
0.0
 10
293.260238
 20
154.398345
 30
0.0
 10
293.260238
 20
133.518345
 30
0.0
 10
293.260238
 20
112.638345
 30
0.0
 10
295.900238
 20
112.638345
 30
0.0
 10
298.540238
 20
112.638345
 30
0.0
 10
298.543238
 20
158.058345
 30
0.0
 10
298.546238
 20
203.478345
 30
0.0
 10
311.682833
 20
226.223842
 30
0.0
 10
324.819443
 20
248.969340
 30
0.0
 10
324.879818
 20
179.003842
 30
0.0
 10
324.940193
 20
109.038345
 30
0.0
 10
326.739788
 20
109.038345
 30
0.0
 10
328.539375
 20
109.038345
 30
0.0
 10
328.539375
 20
72.558345
 30
0.0
 10
328.539375
 20
36.078345
 30
0.0
 10
343.059375
 20
36.078345
 30
0.0
 10
357.579375
 20
36.078345
 30
0.0
 10
357.579375
 20
167.903085
 30
0.0
 10
357.579375
 20
299.727825
 30
0.0
 10
361.454513
 20
304.043085
 30
0.0
  0
SPLINE
  5
133
100
AcDbEntity
  8
Image
 62
7
100
AcDbSpline
 70
8
 71
3
 72
8
 73
4
 74
0
 40
0
 40
0
 40
0
 40
0
 40
1
 40
1
 40
1
 40
1
 10
385.419375
 20
281.478345
 30
0.0
 10
385.419375
 20
312.377400
 30
0.0
 10
385.475400
 20
319.038344
 30
0.0
 10
385.735313
 20
319.038344
 30
0.0
  0
SPLINE
  5
134
100
AcDbEntity
  8
Image
 62
7
100
AcDbSpline
 70
8
 71
3
 72
8
 73
4
 74
0
 40
0
 40
0
 40
0
 40
0
 40
1
 40
1
 40
1
 40
1
 10
385.735313
 20
319.038344
 30
0.0
 10
385.909095
 20
319.038344
 30
0.0
 10
387.727485
 20
317.175344
 30
0.0
 10
389.776193
 20
314.898344
 30
0.0
  0
SPLINE
  5
135
100
AcDbEntity
  8
Image
 62
7
100
AcDbSpline
 70
8
 71
3
 72
8
 73
4
 74
0
 40
0
 40
0
 40
0
 40
0
 40
1
 40
1
 40
1
 40
1
 10
389.776193
 20
314.898344
 30
0.0
 10
391.824908
 20
312.621345
 30
0.0
 10
393.988913
 20
310.218345
 30
0.0
 10
394.585125
 20
309.558345
 30
0.0
  0
SPLINE
  5
136
100
AcDbEntity
  8
Image
 62
7
100
AcDbSpline
 70
8
 71
3
 72
8
 73
4
 74
0
 40
0
 40
0
 40
0
 40
0
 40
1
 40
1
 40
1
 40
1
 10
394.585125
 20
309.558345
 30
0.0
 10
395.181330
 20
308.898345
 30
0.0
 10
397.412925
 20
306.416475
 30
0.0
 10
399.544245
 20
304.043085
 30
0.0
  0
LWPOLYLINE
  5
137
100
AcDbEntity
  8
Image
 62
7
100
AcDbPolyline
 90
5
 70
0
 10
375.579375
 20
281.478345
 30
0.0
 10
375.579375
 20
243.918345
 30
0.0
 10
380.499375
 20
243.918345
 30
0.0
 10
385.419375
 20
243.918345
 30
0.0
 10
385.419375
 20
281.478345
 30
0.0
  0
SPLINE
  5
138
100
AcDbEntity
  8
Image
 62
7
100
AcDbSpline
 70
8
 71
3
 72
8
 73
4
 74
0
 40
0
 40
0
 40
0
 40
0
 40
1
 40
1
 40
1
 40
1
 10
501.260588
 20
152.658345
 30
0.0
 10
506.999445
 20
158.301345
 30
0.0
 10
511.848863
 20
162.953265
 30
0.0
 10
512.037090
 20
162.995940
 30
0.0
  0
SPLINE
  5
139
100
AcDbEntity
  8
Image
 62
7
100
AcDbSpline
 70
8
 71
3
 72
8
 73
4
 74
0
 40
0
 40
0
 40
0
 40
0
 40
1
 40
1
 40
1
 40
1
 10
512.037090
 20
162.995940
 30
0.0
 10
512.332148
 20
163.062840
 30
0.0
 10
512.379360
 20
158.568555
 30
0.0
 10
512.379360
 20
130.415940
 30
0.0
  0
LWPOLYLINE
  5
13a
100
AcDbEntity
  8
Image
 62
7
100
AcDbPolyline
 90
31
 70
0
 10
399.544245
 20
304.043085
 30
0.0
 10
403.419570
 20
299.727825
 30
0.0
 10
403.419570
 20
271.823085
 30
0.0
 10
403.419570
 20
243.918345
 30
0.0
 10
408.099570
 20
243.918345
 30
0.0
 10
412.779570
 20
243.918345
 30
0.0
 10
412.779570
 20
223.278345
 30
0.0
 10
412.779570
 20
202.638345
 30
0.0
 10
419.019570
 20
202.638345
 30
0.0
 10
425.259570
 20
202.638345
 30
0.0
 10
425.259570
 20
119.118345
 30
0.0
 10
425.259570
 20
35.598345
 30
0.0
 10
437.019570
 20
35.598345
 30
0.0
 10
448.779570
 20
35.598345
 30
0.0
 10
448.779570
 20
95.118345
 30
0.0
 10
448.779570
 20
154.638345
 30
0.0
 10
450.218513
 20
154.638345
 30
0.0
 10
451.657455
 20
154.638345
 30
0.0
 10
451.718505
 20
180.785385
 30
0.0
 10
451.779555
 20
206.932425
 30
0.0
 10
460.950840
 20
195.605385
 30
0.0
 10
470.122110
 20
184.278345
 30
0.0
 10
470.130735
 20
169.458345
 30
0.0
 10
470.139360
 20
154.638345
 30
0.0
 10
478.539360
 20
154.638345
 30
0.0
 10
486.939360
 20
154.638345
 30
0.0
 10
486.939360
 20
148.518345
 30
0.0
 10
486.939360
 20
142.398345
 30
0.0
 10
488.882850
 20
142.398345
 30
0.0
 10
490.826325
 20
142.398345
 30
0.0
 10
501.260588
 20
152.658345
 30
0.0
  0
SPLINE
  5
13b
100
AcDbEntity
  8
Image
 62
7
100
AcDbSpline
 70
8
 71
3
 72
8
 73
4
 74
0
 40
0
 40
0
 40
0
 40
0
 40
1
 40
1
 40
1
 40
1
 10
559.372620
 20
96.558345
 30
0.0
 10
565.734180
 20
96.558345
 30
0.0
 10
568.037940
 20
96.483645
 30
0.0
 10
568.251203
 20
96.270345
 30
0.0
  0
SPLINE
  5
13c
100
AcDbEntity
  8
Image
 62
7
100
AcDbSpline
 70
8
 71
3
 72
8
 73
4
 74
0
 40
0
 40
0
 40
0
 40
0
 40
1
 40
1
 40
1
 40
1
 10
568.251203
 20
96.270345
 30
0.0
 10
568.469940
 20
96.051607
 30
0.0
 10
568.539203
 20
91.779682
 30
0.0
 10
568.539203
 20
78.510345
 30
0.0
  0
LWPOLYLINE
  5
13d
100
AcDbEntity
  8
Image
 62
7
100
AcDbPolyline
 90
11
 70
0
 10
512.379360
 20
130.415940
 30
0.0
 10
512.379360
 20
97.758345
 30
0.0
 10
525.819360
 20
97.758345
 30
0.0
 10
539.259360
 20
97.758345
 30
0.0
 10
539.262360
 20
109.698345
 30
0.0
 10
539.265360
 20
121.638345
 30
0.0
 10
544.962285
 20
128.438483
 30
0.0
 10
550.659188
 20
135.238590
 30
0.0
 10
550.720613
 20
115.898483
 30
0.0
 10
550.782038
 20
96.558345
 30
0.0
 10
559.372620
 20
96.558345
 30
0.0
  0
LWPOLYLINE
  5
13e
100
AcDbEntity
  8
Image
 62
7
100
AcDbPolyline
 90
10
 70
0
 10
568.539203
 20
78.510345
 30
0.0
 10
568.539203
 20
61.038345
 30
0.0
 10
588.459203
 20
61.038345
 30
0.0
 10
608.379203
 20
61.038345
 30
0.0
 10
608.379203
 20
46.758345
 30
0.0
 10
608.379203
 20
32.478345
 30
0.0
 10
621.615278
 20
32.478345
 30
0.0
 10
634.851375
 20
32.478345
 30
0.0
 10
634.689465
 20
35.178345
 30
0.0
 10
634.690725
 20
35.178345
 30
0.0
  0
ENDSEC
  0
SECTION
  2
OBJECTS
  0
DICTIONARY
  5
C
330
0
100
AcDbDictionary
  3
ACAD_GROUP
350
D
  3
ACAD_MLINESTYLE
350
17
  0
DICTIONARY
  5
D
330
C
100
AcDbDictionary
  0
DICTIONARY
  5
1A
330
C
100
AcDbDictionary
  0
DICTIONARY
  5
17
330
C
100
AcDbDictionary
  3
STANDARD
350
18
  0
DICTIONARY
  5
19
330
C
100
AcDbDictionary
  0
ENDSEC
  0
EOF
